<?xml version="1.0" encoding="utf-8"?>
<!-- Generator: Adobe Illustrator 26.5.1, SVG Export Plug-In . SVG Version: 6.00 Build 0)  -->
<svg version="1.1" id="Camada_2_00000065068768510052879740000010001926424103715759_"
	 xmlns="http://www.w3.org/2000/svg" xmlns:xlink="http://www.w3.org/1999/xlink" x="0px" y="0px" viewBox="0 0 947.9 529.9"
	 style="enable-background:new 0 0 947.9 529.9;" xml:space="preserve">
<style type="text/css">
	.st0{fill:#0A7081;}
</style>
<g id="Camada_1-2">
	<g>
		<path class="st0" d="M30.2,300.3c0-1.9,0.1-3.7,0-5.6c-0.1-4-2.2-6-6.3-6c-5.8,0-11.6,0-17.4,0c-4.4,0-6.3,2.4-6.3,6.6
			c-0.2,46.7-0.2,93.4,0.7,140c0.1,4.6,2.2,6.9,6.9,6.8c4.6-0.1,9.1,0,13.7,0c6.9-0.1,8.4-1.5,8.4-8.4c0.3-25.1,0.5-50.2,0.8-75.3
			c0-3.7,0.1-7.5,0.4-11.2c1.6-18.4,15.5-31.8,33.4-32.2c19.8-0.5,34.1,11.4,36.8,30.5c1.3,9.5,0.7,19.1,0.9,28.6
			c0.4,19.7,0.6,39.4,0.9,59.1c0.1,7.8,1.3,8.8,9.2,8.8c3.9,0,7.9-0.2,11.8,0c6,0.3,8-2.6,8-8.3c0.2-26.8,0.6-53.5,1-80.3
			c0.1-3.7,0.1-7.5,0.9-11.1c3.8-17.8,17.8-28.1,36.8-27.4c16.8,0.6,30.1,13,32.5,30.3c1.6,10.9,0.7,22,0.9,32.9
			c0.4,18.5,0.4,36.9,0.6,55.4c0.1,7.1,1.4,8.4,8.4,8.4c4.1,0,8.3-0.2,12.4,0c5.9,0.3,8.3-2.3,8.3-8.1c-0.1-11,0.2-22,0.2-33
			c0.1-17,0.7-34,0.3-51c-0.7-25.7-10.7-46.8-35.1-57.6c-23.8-10.6-47.6-10.2-69.4,6.1c-4.1,3-7.4,9.3-11.3,9.5
			c-3.3,0.2-6.8-6.5-10.9-9.3c-14.9-10.4-31.3-15-49.4-12.3c-9.2,1.4-17.5,5-24.2,11.6C33.1,299,32.6,301.1,30.2,300.3L30.2,300.3z"
			/>
		<path class="st0" d="M604.8,223.2c0.1-1.4,0.7-5.8-1.9-8.3c-1.5-1.5-4-1.8-8.3-1.9c-20.8-0.1-19.3-1.2-19.3,19
			c0,23.2,0,46.5-0.1,69.7c0,1.5,0.9,3.5-1,4.4c-1.1,0.5-1.8-0.7-2.5-1.4c-23.9-24.5-58.7-23.2-84.1-7.8
			c-31.4,19-45.3,56.9-33.9,91.8c11.2,34.2,44.3,56,80.8,53.2c35.4-2.7,65.4-30.5,70.3-66.4c2.7-19.7,1.6-39.8,1.6-59.7
			 M574.2,363.6c0.1,26.3-20.5,47.1-46.6,47.2c-25.6,0.1-46.8-20.9-46.9-46.5c-0.2-26,20.8-47,46.8-47.1
			C553.6,317.3,574.1,337.6,574.2,363.6L574.2,363.6z"/>
		<path class="st0" d="M676.5,301c-2-2.5-1.2-4.8-1.3-7c-0.4-27-0.7-53.9-1.1-80.9c-0.1-8.3-0.9-8.9-9-8.9c-3.7,0-7.5,0.2-11.2-0.1
			c-5.9-0.4-8,2.3-8.1,8.1c-0.7,55.8-1.6,111.5-0.9,167.3c0.2,18.2,0.7,36.5,0.9,54.7c0,5.9,2.4,8.4,8.2,7.9c3.7-0.3,7.5,0,11.2,0
			c8,0,9.5-1.5,9.6-9.3c0.3-26.3,0.6-52.7,1-79c0-3.7,0.1-7.5,0.8-11.1c3.9-19,17.8-28.9,37.7-27.1c20.6,1.8,31.9,13.8,32.4,35.2
			c0.5,23,0.5,46,0.7,69c0,5,0.2,10,0.2,14.9c0,4.7,2,7.4,7.1,7.3c5-0.1,10-0.1,14.9,0c4.6,0.1,7.1-2.1,7-6.7
			c-0.1-30.7,2.8-61.5,0-92c-4-44.2-41.1-62.6-77.4-56.6C690.3,288.4,682.8,293.3,676.5,301L676.5,301z"/>
		<path class="st0" d="M345.5,285.8c-39,0.3-69.4,24-77.1,60.2c-7.5,35.3,8.3,70.2,39.4,86.9c31,16.7,72.2,10.4,96.5-14.5
			c3.5-3.6,3.8-6.6,0.1-10c-3.3-3.1-6.7-6.2-9.8-9.6c-4-4.5-7.5-4.2-12.2-0.5c-18.4,14.6-38.8,17.9-60.6,8.6
			c-11.3-4.8-18.6-13.5-22.3-25.2c-1.9-6.1-1.3-7,4.9-7c30.1,0,60.1,0,90.2,0c16.1,0,22.7-6.6,22.8-22.5
			c0.1-30.8-29.9-62.9-61.4-65.8C352.6,286.1,349.1,286,345.5,285.8L345.5,285.8z M345.2,351.8c-12.6,0-25.3,0-38,0
			c-6.4,0-7.2-1.3-5.1-7.5c6.2-18.7,24.9-31.6,45.4-31.5c19.1,0.1,33.9,11.9,40.2,32c1.8,5.8,1,7-5.2,7
			C370.1,351.8,357.7,351.7,345.2,351.8L345.2,351.8z"/>
		<path class="st0" d="M872.1,399.1c-8.2-18.7-16.2-37.2-24.3-55.7c-6.6-15-13.3-29.9-19.6-45c-2-4.8-4.9-6.7-9.9-6.3
			c-4.1,0.3-8.3,0-12.4,0.1c-8.8,0.1-10.6,2.6-7.3,10.6c12.5,30.6,25.1,61.3,37.7,91.9c5.8,14.2,11.5,28.4,17.5,42.5
			c1.6,3.8,1.5,6.9,0.2,10.6c-8.5,23.3-16.9,46.7-25.3,70.1c-3.2,9-1.1,12,8.4,11.9c22.4-0.2,17.6,2.7,25.6-17.1
			c28-69.7,55.8-139.5,83.7-209.3c3.5-8.8,1.7-10.2-7.6-11.5c-14.5-2-21.6,3.4-26.8,17.2c-10.7,28.2-23.7,55.6-35.8,83.3
			C875.1,394.6,874.7,397.2,872.1,399.1L872.1,399.1z"/>
		<path class="st0" d="M467.3,169.6c0.2,19.5,0.2,33.4-0.1,37.3c-0.1,0.6-0.3,2.7,1,3.9c0.8,0.7,2,0.9,3.9,0.7
			c25.2-1.9,47.3-11.1,66.1-28.1c2-1.8,3.6-3.6,3.5-6.7c-0.4-14.7,0.1-29.4-0.8-44.1c-1.6-28.3-27.8-44.4-52.5-32.7
			c-7.6,3.6-11.8,8.8-12.7,9.9c-7.2,9.1-7.5,19.2-7.4,22.5C468,144.7,467.6,157.2,467.3,169.6L467.3,169.6z"/>
		<path class="st0" d="M436.6,167.5c0.1-13.8,0.2-27.4-1.9-41c-2.7-17.5-16.3-29.5-34.2-30.4c-17.1-0.8-32.2,10.2-36.6,26.8
			c-0.9,3.2-1.1,6.5-0.1,9.8c10.5,35.6,33,60,67.9,73c4,1.5,4.9,0.8,4.8-3.4C436.5,190.8,436.6,179.1,436.6,167.5L436.6,167.5z"/>
		<path class="st0" d="M453.7,89.6c27-37.6,102.6-32,117.7,22.3c1.6-9.8,0.1-19.4-1.7-29.1c-0.1-0.4-0.3-0.8-0.4-1.2
			c-1.7-17.6-12.8-26.5-28.6-31.7c-23.3-7.7-46.4-10-69.7-0.3c-6,2.5-10.8,9.6-16.1,9.2c-5.1-0.4-10.1-6.6-15.9-8.9
			c-18.4-7.4-37.2-9.2-56.5-3.5c-3.8,1.1-6.4,3.2-8.3,6.8c-3.2,6.3-6.4,12.5-8.5,19.3c-0.4,1.1-1.7,2.3-0.5,3.3
			c1.2,1,2.6,0.2,3.9-0.6c23.2-15.4,46.3-11.7,69.1,1C444.3,79.5,449.1,84.5,453.7,89.6L453.7,89.6z"/>
		<path class="st0" d="M411,15.9c14.7,0.6,28,2.8,38.8,10.8c7,5.1,10.9,4.4,17.4-0.4c11.5-8.5,25.4-10.4,39.6-10.1
			c4.5,0.1,8.9,0.9,13.6-0.1C497.6-2.7,446.8-7.8,411,15.9L411,15.9z"/>
	</g>
</g>
</svg>
