<?xml version="1.0" encoding="UTF-8"?>
<svg id="Camada_2" data-name="Camada 2" xmlns="http://www.w3.org/2000/svg" viewBox="0 0 264.1 267.42">
  <defs>
    <style>
      .cls-1 {
        fill: #0a7081;
      }
    </style>
  </defs>
  <g id="Camada_1-2" data-name="Camada 1-2">
    <g>
      <path class="cls-1" d="M131.66,214.37c.25,24.65,.25,42.22-.13,47.15-.13,.76-.38,3.41,1.26,4.93,1.01,.88,2.53,1.14,4.93,.88,31.85-2.4,59.79-14.03,83.55-35.52,2.53-2.28,4.55-4.55,4.42-8.47-.51-18.58,.13-37.16-1.01-55.74-2.02-35.77-35.14-56.12-66.36-41.33-9.61,4.55-14.91,11.12-16.05,12.51-9.1,11.5-9.48,24.27-9.35,28.44-.38,15.67-.88,31.47-1.26,47.15h0Z"/>
      <path class="cls-1" d="M92.86,211.71c.13-17.44,.25-34.63-2.4-51.82-3.41-22.12-20.6-37.29-43.23-38.42-21.61-1.01-40.7,12.89-46.26,33.87-1.14,4.04-1.39,8.22-.13,12.39,13.27,45,41.71,75.84,85.82,92.27,5.06,1.9,6.19,1.01,6.07-4.3,0-14.54,.13-29.32,.13-43.99h0Z"/>
      <path class="cls-1" d="M114.47,113.25c34.13-47.53,129.68-40.45,148.77,28.19,2.02-12.39,.13-24.52-2.15-36.78-.13-.51-.38-1.01-.51-1.52-2.15-22.25-16.18-33.5-36.15-40.07-29.45-9.73-58.65-12.64-88.1-.38-7.58,3.16-13.65,12.13-20.35,11.63-6.45-.51-12.77-8.34-20.1-11.25-23.26-9.35-47.02-11.63-71.41-4.42-4.8,1.39-8.09,4.04-10.49,8.59-4.04,7.96-8.09,15.8-10.74,24.39-.51,1.39-2.15,2.91-.63,4.17s3.29,.25,4.93-.76c29.32-19.47,58.52-14.79,87.34,1.26,7.71,4.17,13.78,10.49,19.59,16.94h0Z"/>
      <path class="cls-1" d="M60.5,20.1c18.58,.76,35.39,3.54,49.04,13.65,8.85,6.45,13.78,5.56,21.99-.51,14.54-10.74,32.1-13.15,50.05-12.77,5.69,.13,11.25,1.14,17.19-.13-28.82-23.76-93.03-30.21-138.28-.25h0Z"/>
    </g>
  </g>
</svg>