<?xml version="1.0" encoding="UTF-8"?>
<svg id="Camada_2" data-name="Camada 2" xmlns="http://www.w3.org/2000/svg" viewBox="0 0 947.88 529.93">
  <defs>
    <style>
      .cls-1 {
        fill: #fff;
      }
    </style>
  </defs>
  <g id="Camada_1-2" data-name="Camada 1">
    <g>
      <path class="cls-1" d="M30.22,300.34c0-1.88,.06-3.74-.01-5.61-.15-4.03-2.25-6.03-6.32-6.01-5.81,.03-11.62,.02-17.43,0-4.45,0-6.33,2.4-6.35,6.64-.2,46.68-.24,93.37,.68,140.04,.09,4.57,2.18,6.9,6.9,6.8,4.56-.1,9.13,.02,13.69-.03,6.88-.06,8.36-1.53,8.44-8.4,.26-25.1,.49-50.21,.76-75.31,.04-3.73,.09-7.48,.41-11.19,1.58-18.38,15.52-31.75,33.43-32.17,19.8-.47,34.12,11.38,36.75,30.53,1.3,9.49,.67,19.06,.87,28.59,.4,19.71,.58,39.42,.89,59.12,.12,7.77,1.27,8.81,9.25,8.84,3.94,.01,7.89-.17,11.82,.04,5.99,.32,8-2.57,8.04-8.27,.19-26.76,.57-53.52,.97-80.28,.05-3.72,.13-7.52,.91-11.13,3.83-17.81,17.83-28.13,36.81-27.44,16.82,.61,30.07,12.96,32.54,30.33,1.55,10.94,.71,21.96,.94,32.94,.37,18.46,.39,36.93,.64,55.39,.1,7.09,1.44,8.35,8.4,8.41,4.15,.04,8.31-.17,12.45,.05,5.86,.31,8.31-2.33,8.28-8.11-.06-11,.17-21.99,.25-32.99,.13-17.01,.73-34.04,.26-51.04-.72-25.71-10.74-46.75-35.1-57.65-23.79-10.64-47.59-10.17-69.42,6.06-4.06,3.01-7.37,9.31-11.29,9.53-3.34,.19-6.77-6.46-10.88-9.33-14.91-10.39-31.26-15-49.4-12.32-9.25,1.37-17.46,5.01-24.23,11.65-1.02,1-1.61,3.12-3.94,2.31Z"/>
      <path class="cls-1" d="M604.8,296.6c0-24.47,.07-48.93-.04-73.4-.04-8.72-1.68-10.13-10.21-10.19-20.81-.14-19.32-1.18-19.3,19.04,.02,23.23-.04,46.46-.14,69.68,0,1.5,.94,3.5-1.05,4.42-1.08,.5-1.79-.7-2.49-1.42-23.9-24.46-58.71-23.17-84.11-7.8-31.36,18.98-45.27,56.87-33.88,91.78,11.16,34.21,44.31,56.05,80.81,53.25,35.36-2.71,65.44-30.52,70.32-66.43,2.68-19.72,1.62-39.75,1.61-59.66,0-6.43,0-12.86,0-19.28-.51,0-1.02,0-1.52,0Zm-30.58,67.03c.09,26.32-20.45,47.15-46.57,47.21-25.58,.06-46.79-20.94-46.94-46.48-.16-26.02,20.77-47.05,46.85-47.08,26.04-.02,46.58,20.37,46.67,46.35Z"/>
      <path class="cls-1" d="M676.51,300.98c-2.01-2.48-1.25-4.84-1.28-6.97-.41-26.95-.68-53.9-1.09-80.85-.13-8.26-.9-8.9-9-8.93-3.73-.02-7.48,.19-11.19-.05-5.92-.37-8.03,2.27-8.1,8.09-.65,55.77-1.56,111.54-.88,167.32,.22,18.24,.74,36.48,.86,54.73,.04,5.88,2.39,8.36,8.25,7.93,3.71-.27,7.46-.04,11.19-.05,8.02-.02,9.48-1.46,9.57-9.28,.3-26.33,.6-52.66,.96-78.99,.05-3.72,.09-7.52,.84-11.14,3.93-19,17.79-28.85,37.74-27.07,20.56,1.83,31.87,13.78,32.37,35.23,.54,23.01,.46,46.03,.66,69.04,.04,4.98,.17,9.95,.2,14.92,.03,4.74,1.99,7.42,7.09,7.3,4.97-.12,9.95-.09,14.93,0,4.62,.08,7.06-2.15,7.05-6.7-.09-30.68,2.75-61.47,.02-92-3.95-44.16-41.14-62.61-77.36-56.58-9.02,1.5-16.52,6.41-22.86,14.05Z"/>
      <path class="cls-1" d="M345.54,285.81c-39,.28-69.41,23.97-77.14,60.21-7.53,35.31,8.29,70.2,39.42,86.94,30.98,16.66,72.2,10.4,96.53-14.52,3.48-3.56,3.75-6.62,.13-10.05-3.31-3.14-6.7-6.21-9.77-9.58-4.05-4.45-7.54-4.17-12.21-.45-18.42,14.62-38.77,17.91-60.6,8.65-11.29-4.79-18.62-13.5-22.26-25.25-1.88-6.07-1.29-6.98,4.93-6.98,30.06-.03,60.12,0,90.19-.02,16.09,0,22.72-6.59,22.75-22.53,.06-30.77-29.9-62.86-61.42-65.77-3.51-.32-7.03-.45-10.55-.67Zm-.3,65.94c-12.65,0-25.3,.05-37.95-.02-6.39-.03-7.2-1.32-5.15-7.54,6.17-18.66,24.89-31.64,45.41-31.48,19.11,.15,33.89,11.91,40.25,32.02,1.82,5.76,.99,6.96-5.24,6.99-12.44,.06-24.88,.02-37.32,.02Z"/>
      <path class="cls-1" d="M872.13,399.08c-8.17-18.71-16.25-37.21-24.35-55.71-6.56-14.98-13.31-29.87-19.6-44.96-2.01-4.82-4.9-6.67-9.94-6.29-4.13,.31-8.29,.04-12.44,.07-8.78,.06-10.56,2.63-7.29,10.63,12.54,30.65,25.11,61.28,37.67,91.92,5.81,14.18,11.47,28.41,17.49,42.5,1.6,3.75,1.52,6.94,.16,10.65-8.54,23.32-16.94,46.7-25.34,70.08-3.21,8.95-1.13,11.98,8.38,11.91,22.44-.16,17.6,2.69,25.57-17.14,28.03-69.72,55.85-139.52,83.74-209.29,3.52-8.8,1.74-10.21-7.57-11.49-14.47-2-21.56,3.37-26.81,17.17-10.74,28.22-23.66,55.6-35.76,83.3-.96,2.19-1.37,4.78-3.92,6.67Z"/>
      <path class="cls-1" d="M467.29,169.6c.21,19.54,.25,33.36-.1,37.29-.06,.65-.28,2.72,.96,3.88,.75,.71,2,.87,3.94,.73,25.25-1.88,47.33-11.07,66.1-28.12,2-1.82,3.63-3.55,3.55-6.74-.37-14.71,.06-29.45-.76-44.13-1.58-28.27-27.75-44.42-52.48-32.68-7.6,3.61-11.83,8.8-12.73,9.94-7.17,9.09-7.48,19.15-7.44,22.52-.34,12.43-.68,24.87-1.03,37.3Z"/>
      <path class="cls-1" d="M436.62,167.53c.09-13.77,.2-27.39-1.87-40.99-2.67-17.51-16.26-29.48-34.16-30.36-17.14-.85-32.23,10.19-36.58,26.79-.85,3.25-1.06,6.53-.09,9.81,10.55,35.59,33,60.04,67.94,72.98,4.04,1.5,4.93,.8,4.84-3.41-.23-11.6-.08-23.21-.08-34.82Z"/>
      <path class="cls-1" d="M453.71,89.56c27.03-37.61,102.56-31.97,117.68,22.31,1.64-9.78,.09-19.43-1.65-29.06-.07-.4-.33-.78-.36-1.19-1.69-17.63-12.77-26.5-28.56-31.7-23.31-7.68-46.42-9.96-69.74-.26-5.98,2.49-10.81,9.61-16.13,9.23-5.11-.36-10.06-6.59-15.87-8.93-18.44-7.4-37.22-9.23-56.49-3.53-3.78,1.12-6.43,3.17-8.28,6.8-3.19,6.28-6.39,12.52-8.48,19.29-.35,1.12-1.7,2.3-.53,3.31,1.21,1.04,2.63,.21,3.88-.61,23.24-15.36,46.27-11.68,69.09,.98,6.01,3.33,10.81,8.27,15.45,13.36Z"/>
      <path class="cls-1" d="M410.99,15.87c14.74,.55,28.04,2.82,38.82,10.77,6.99,5.15,10.88,4.38,17.39-.44,11.53-8.54,25.4-10.44,39.57-10.09,4.45,.11,8.94,.87,13.59-.15-22.81-18.61-73.55-23.74-109.37-.09Z"/>
    </g>
  </g>
</svg>