<?xml version="1.0" encoding="UTF-8"?>
<svg id="Camada_2" data-name="Camada 2" xmlns="http://www.w3.org/2000/svg" viewBox="0 0 274.1 277.42">
  <defs>
    <style>
      .cls-1 {
        fill: #fff;
      }

      .cls-2 {
        fill: #0a7081;
      }
    </style>
  </defs>
  <g id="Camada_1-2" data-name="Camada 1-2">
    <g>
      <path class="cls-1" d="M141.13,277.42c-2.76,0-4.92-.72-6.63-2.22l-.1-.09c-3.32-3.07-3.08-7.5-2.84-9.16,.23-3.31,.43-14.13,.1-46.54v-.17c.19-7.84,.41-15.72,.63-23.59,.22-7.82,.44-15.64,.63-23.42-.14-5.46,.62-19.15,10.43-31.55l.09-.11c5.97-7.3,12.95-11.55,17.74-13.82,7.5-3.55,15.26-5.35,23.09-5.35,12.97,0,25.21,5.02,34.47,14.14,9.46,9.32,15.12,22.38,15.94,36.78,.7,11.43,.74,23,.77,34.19,.02,7.12,.05,14.49,.24,21.7,.21,6.66-3.88,10.34-6.08,12.32-24.21,21.89-53.3,34.27-86.45,36.78-.74,.08-1.41,.11-2.04,.11h0Z"/>
      <path class="cls-2" d="M136.66,219.37c.25,24.65,.25,42.22-.13,47.15-.13,.76-.38,3.41,1.26,4.93,1.01,.88,2.53,1.14,4.93,.88,31.85-2.4,59.79-14.03,83.55-35.52,2.53-2.28,4.55-4.55,4.42-8.47-.51-18.58,.13-37.16-1.01-55.74-2.02-35.77-35.14-56.12-66.36-41.33-9.61,4.55-14.91,11.12-16.05,12.51-9.1,11.5-9.48,24.27-9.35,28.44-.38,15.67-.88,31.47-1.26,47.15h0Z"/>
      <path class="cls-1" d="M95.33,270.91c-1.5,0-3.12-.37-5.42-1.23C44.67,252.83,14.77,220.68,1.04,174.14c-1.43-4.7-1.39-9.82,.11-15.16,5.85-22.09,25.96-37.57,48.87-37.57,.81,0,1.63,.02,2.44,.06,24.94,1.25,44.19,18.4,47.94,42.66,2.71,17.58,2.58,35.39,2.46,52.6,0,7.33-.03,14.72-.06,22.09-.03,7.3-.06,14.59-.06,21.82,.07,2.99-.17,6.04-2.29,8.21-.92,.94-2.55,2.06-5.11,2.06h0Z"/>
      <path class="cls-2" d="M97.86,216.71c.13-17.44,.25-34.63-2.4-51.82-3.41-22.12-20.6-37.29-43.23-38.42-21.61-1.01-40.7,12.89-46.26,33.87-1.14,4.04-1.39,8.22-.13,12.39,13.27,45,41.71,75.84,85.82,92.27,5.06,1.9,6.19,1.01,6.07-4.3,0-14.54,.13-29.32,.13-43.99h0Z"/>
      <path class="cls-1" d="M263.42,147.78c-11.29-40.59-49.06-55-77.97-55-26.01,0-49.16,10.61-61.92,28.39l-3.62,5.04-4.16-4.61c-5.36-5.94-11.18-12.06-18.26-15.89-16.26-9.05-30.86-13.44-44.7-13.44-13.12,0-25.38,3.91-37.49,11.94l-.15,.09c-1.27,.78-3.4,2.09-5.96,2.09-1.76,0-3.41-.6-4.79-1.75-1.61-1.35-3.9-4.35-1.08-9.36,.07-.12,.14-.24,.2-.37,2.69-8.61,6.69-16.49,10.56-24.11l.42-.84c3.03-5.75,7.46-9.37,13.56-11.13,9.98-2.95,20.21-4.45,30.39-4.45,14.48,0,29.37,3.04,44.28,9.03,3.74,1.48,7.14,3.97,10.13,6.16,3.07,2.25,6.25,4.57,8.49,4.75,.04,0,.1,0,.16,0,1.98,0,4.99-2.41,7.91-4.74,2.9-2.32,6.19-4.95,9.97-6.52,13.72-5.71,27.7-8.49,42.73-8.49s31.07,2.86,48.86,8.73c24.65,8.11,37.21,22.03,39.5,43.78,0,.01,0,.02,.01,.04,.12,.32,.29,.77,.42,1.29l.04,.15,.03,.15c2.37,12.77,4.32,25.33,2.17,38.5l-9.75,.53Z"/>
      <path class="cls-2" d="M119.47,118.25c34.13-47.53,129.68-40.45,148.77,28.19,2.02-12.39,.13-24.52-2.15-36.78-.13-.51-.38-1.01-.51-1.52-2.15-22.25-16.18-33.5-36.15-40.07-29.45-9.73-58.65-12.64-88.1-.38-7.58,3.16-13.65,12.13-20.35,11.63-6.45-.51-12.77-8.34-20.1-11.25-23.26-9.35-47.02-11.63-71.41-4.42-4.8,1.39-8.09,4.04-10.49,8.59-4.04,7.96-8.09,15.8-10.74,24.39-.51,1.39-2.15,2.91-.63,4.17s3.29,.25,4.93-.76c29.32-19.47,58.52-14.79,87.34,1.26,7.71,4.17,13.78,10.49,19.59,16.94h0Z"/>
      <path class="cls-1" d="M125.22,48.2c-4.28,0-8.48-1.67-13.62-5.41-13.61-10.08-31.04-12.07-46.3-12.7l-15.45-.63,12.89-8.53C83.12,7.43,109.17,0,136.09,0s54.54,8.03,70.86,21.49l7.99,6.59-10.13,2.16c-2.33,.5-4.82,.74-7.61,.74h0c-2.14,0-4.2-.14-6.2-.27-1.57-.1-3.05-.2-4.54-.24-1.11-.02-2.22-.04-3.33-.04-18.86,0-32.72,3.76-43.63,11.82-4.18,3.08-8.8,5.94-14.29,5.94Z"/>
      <path class="cls-2" d="M65.5,25.1c18.58,.76,35.39,3.54,49.04,13.65,8.85,6.45,13.78,5.56,21.99-.51,14.54-10.74,32.1-13.15,50.05-12.77,5.69,.13,11.25,1.14,17.19-.13-28.82-23.76-93.03-30.21-138.28-.25h0Z"/>
    </g>
  </g>
  <g id="Camada_1-2-2" data-name="Camada 1-2">
    <g>
      <path class="cls-2" d="M137.65,219.37c.25,24.65,.25,42.22-.13,47.15-.13,.76-.38,3.41,1.26,4.93,1.01,.88,2.53,1.14,4.93,.88,31.85-2.4,59.79-14.03,83.55-35.52,2.53-2.28,4.55-4.55,4.42-8.47-.51-18.58,.13-37.16-1.01-55.74-2.02-35.77-35.14-56.12-66.36-41.33-9.61,4.55-14.91,11.12-16.05,12.51-9.1,11.5-9.48,24.27-9.35,28.44-.38,15.67-.88,31.47-1.26,47.15h0Z"/>
      <path class="cls-2" d="M98.85,216.71c.13-17.44,.25-34.63-2.4-51.82-3.41-22.12-20.6-37.29-43.23-38.42-21.61-1.01-40.7,12.89-46.26,33.87-1.14,4.04-1.39,8.22-.13,12.39,13.27,45,41.71,75.84,85.82,92.27,5.06,1.9,6.19,1.01,6.07-4.3,0-14.54,.13-29.32,.13-43.99h0Z"/>
      <path class="cls-2" d="M120.46,118.25c34.13-47.53,129.68-40.45,148.77,28.19,2.02-12.39,.13-24.52-2.15-36.78-.13-.51-.38-1.01-.51-1.52-2.15-22.25-16.18-33.5-36.15-40.07-29.45-9.73-58.65-12.64-88.1-.38-7.58,3.16-13.65,12.13-20.35,11.63-6.45-.51-12.77-8.34-20.1-11.25-23.26-9.35-47.02-11.63-71.41-4.42-4.8,1.39-8.09,4.04-10.49,8.59-4.04,7.96-8.09,15.8-10.74,24.39-.51,1.39-2.15,2.91-.63,4.17s3.29,.25,4.93-.76c29.32-19.47,58.52-14.79,87.34,1.26,7.71,4.17,13.78,10.49,19.59,16.94h0Z"/>
      <path class="cls-2" d="M66.49,25.1c18.58,.76,35.39,3.54,49.04,13.65,8.85,6.45,13.78,5.56,21.99-.51,14.54-10.74,32.1-13.15,50.05-12.77,5.69,.13,11.25,1.14,17.19-.13-28.82-23.76-93.03-30.21-138.28-.25h0Z"/>
    </g>
  </g>
</svg>